<?xml version="1.0" standalone="no"?>
<!DOCTYPE svg PUBLIC "-//W3C//DTD SVG 20010904//EN"
 "http://www.w3.org/TR/2001/REC-SVG-20010904/DTD/svg10.dtd">
<svg version="1.0" xmlns="http://www.w3.org/2000/svg"
 width="1500.000000pt" height="1371.000000pt" viewBox="0 0 1500.000000 1371.000000"
 preserveAspectRatio="xMidYMid meet">

<g transform="translate(0.000000,1371.000000) scale(0.100000,-0.100000)"
fill="#000000" stroke="none">
<path d="M196 13688 c-7 -13 -55 -88 -105 -167 l-91 -145 0 -1475 1 -1476 630
-405 c347 -223 643 -410 657 -417 15 -7 131 -80 257 -162 428 -279 667 -432
670 -429 4 4 451 706 650 1018 92 146 172 269 176 274 5 5 147 -270 325 -627
173 -350 320 -637 324 -637 12 0 944 997 948 1013 2 8 -87 286 -197 618 -110
332 -199 605 -197 606 2 2 211 -148 466 -333 l462 -336 43 43 c105 107 698
744 732 786 21 26 375 407 787 846 726 775 748 799 730 817 -11 10 -185 151
-387 314 l-369 296 -3249 0 -3249 0 -14 -22z"/>
</g>
</svg>
